<?xml version="1.0" encoding="UTF-8"?>
<svg width="76px" height="68px" viewBox="0 0 76 68" version="1.1" xmlns="http://www.w3.org/2000/svg" xmlns:xlink="http://www.w3.org/1999/xlink">
    <!-- Generator: Sketch 48.2 (47327) - http://www.bohemiancoding.com/sketch -->
    <title>noun_357035_cc (1)</title>
    <desc>Created with Sketch.</desc>
    <defs></defs>
    <g id="Page-1" stroke="none" stroke-width="1" fill="none" fill-rule="evenodd">
        <g id="noun_357035_cc-(1)" fill-rule="nonzero">
            <g id="Group">
                <path d="M46.53,40.306 C46.31,40.557 45.901,40.397 45.901,40.063 L45.901,35.73 C45.901,33.895 45.901,32.061 45.901,30.186 C45.226,30.021 44.603,29.896 43.996,29.717 C37.282,27.735 32.534,21.265 33.187,13.741 C33.766,7.076 39.309,1.27 46.203,0.359 C46.924,0.264 47.659,0.243 48.387,0.241 C52.269,0.23 56.151,0.215 60.033,0.24 C67.854,0.291 73.916,5.5 75.162,13.21 C76.43,21.053 70.563,29.056 62.669,30.077 C60.454,30.363 58.186,30.262 55.943,30.28 C55.276,30.286 54.835,30.451 54.406,31.002 C52.364,33.622 48.129,38.482 46.53,40.306 Z M68.267,16.077 C68.271,14.165 66.728,12.613 64.832,12.622 C62.972,12.63 61.439,14.152 61.417,16.012 C61.395,17.933 62.898,19.477 64.811,19.498 C66.72,19.518 68.264,17.991 68.267,16.077 Z M42.676,19.498 C44.571,19.506 46.143,17.945 46.137,16.059 C46.131,14.179 44.536,12.601 42.661,12.622 C40.805,12.642 39.28,14.168 39.256,16.031 C39.231,17.932 40.767,19.489 42.676,19.498 Z M50.351,16.048 C50.344,17.979 51.855,19.502 53.771,19.498 C55.672,19.493 57.222,17.934 57.207,16.041 C57.192,14.189 55.665,12.653 53.808,12.622 C51.921,12.59 50.359,14.138 50.351,16.048 Z" id="Shape" fill="#FFC702"></path>
                <path d="M34.374,26.346 L32.234,26.346 L26.072,26.346 L17.53,26.346 L11.368,26.346 L1.857,26.346 C1.198,26.346 0.664,26.88 0.664,27.539 L0.664,33.158 L0.664,39.239 C0.664,39.898 1.198,40.432 1.857,40.432 L3.23,40.432 C3.868,40.432 4.403,39.962 4.492,39.33 C4.782,37.272 6.028,33.061 11.368,33.158 L15.337,33.158 C15.996,33.158 16.53,33.692 16.53,34.351 L16.53,35.487 L16.53,44.972 L16.53,60.162 C16.53,61.567 15.391,62.707 13.985,62.707 L10.611,62.707 L10.611,64.356 L10.611,64.528 L10.611,65.005 L10.611,66.314 C10.611,66.973 11.145,67.507 11.804,67.507 L31.798,67.507 C32.457,67.507 32.991,66.973 32.991,66.314 L32.991,64.6 L32.991,62.708 L29.617,62.708 C28.211,62.708 27.072,61.569 27.072,60.163 L27.072,44.973 L27.072,35.488 L27.072,34.35 C27.072,33.691 27.606,33.157 28.265,33.157 L32.234,33.157 C37.574,33.06 38.82,37.271 39.11,39.329 C39.199,39.961 39.734,40.431 40.372,40.431 L41.745,40.431 C42.404,40.431 42.938,39.897 42.938,39.238 L42.938,33.157 L42.938,32.224 C39.479,31.138 36.535,29.054 34.374,26.346 Z" id="Shape" fill="#000000"></path>
            </g>
        </g>
    </g>
</svg>